<mxfile host="drawio-plugin" modified="2021-05-30T12:03:08.102Z" agent="5.0 (Windows NT 6.2; Win64; x64) AppleWebKit/537.36 (KHTML, like Gecko) Chrome/87.0.4280.141 Safari/537.36" etag="gVv4_t-bT_-gH3wIqzd5" version="13.7.9" type="embed"><diagram id="L99GFlT6K3SowBf8tOCK" name="Page-1"><mxGraphModel dx="2072" dy="743" grid="1" gridSize="10" guides="1" tooltips="1" connect="1" arrows="1" fold="1" page="1" pageScale="1" pageWidth="1100" pageHeight="850" math="0" shadow="0"><root><mxCell id="0"/><mxCell id="1" parent="0"/><mxCell id="VBkov93yWaIdt4Ub14gF-1" style="edgeStyle=orthogonalEdgeStyle;orthogonalLoop=1;jettySize=auto;html=1;curved=1;fontColor=#2B2B2B;" parent="1" source="VBkov93yWaIdt4Ub14gF-20" target="VBkov93yWaIdt4Ub14gF-11" edge="1"><mxGeometry relative="1" as="geometry"><Array as="points"><mxPoint x="360" y="125"/><mxPoint x="360" y="125"/></Array></mxGeometry></mxCell><mxCell id="VBkov93yWaIdt4Ub14gF-2" style="edgeStyle=orthogonalEdgeStyle;orthogonalLoop=1;jettySize=auto;html=1;entryX=0;entryY=0.5;entryDx=0;entryDy=0;curved=1;fontColor=#2B2B2B;" parent="1" source="VBkov93yWaIdt4Ub14gF-10" target="VBkov93yWaIdt4Ub14gF-101" edge="1"><mxGeometry relative="1" as="geometry"><Array as="points"><mxPoint x="120" y="99"/><mxPoint x="120" y="445"/></Array></mxGeometry></mxCell><mxCell id="VBkov93yWaIdt4Ub14gF-3" style="edgeStyle=orthogonalEdgeStyle;orthogonalLoop=1;jettySize=auto;html=1;entryX=1;entryY=0.5;entryDx=0;entryDy=0;curved=1;fontColor=#2B2B2B;" parent="1" source="VBkov93yWaIdt4Ub14gF-66" target="VBkov93yWaIdt4Ub14gF-64" edge="1"><mxGeometry relative="1" as="geometry"><Array as="points"><mxPoint x="650" y="310"/><mxPoint x="650" y="261"/></Array></mxGeometry></mxCell><mxCell id="VBkov93yWaIdt4Ub14gF-4" style="edgeStyle=orthogonalEdgeStyle;orthogonalLoop=1;jettySize=auto;html=1;curved=1;fontColor=#2B2B2B;" parent="1" source="VBkov93yWaIdt4Ub14gF-10" target="VBkov93yWaIdt4Ub14gF-41" edge="1"><mxGeometry relative="1" as="geometry"><Array as="points"><mxPoint x="110" y="99"/><mxPoint x="110" y="585"/></Array></mxGeometry></mxCell><mxCell id="VBkov93yWaIdt4Ub14gF-5" style="edgeStyle=orthogonalEdgeStyle;orthogonalLoop=1;jettySize=auto;html=1;curved=1;fontColor=#2B2B2B;" parent="1" source="VBkov93yWaIdt4Ub14gF-20" target="VBkov93yWaIdt4Ub14gF-29" edge="1"><mxGeometry relative="1" as="geometry"><Array as="points"><mxPoint x="500" y="131"/><mxPoint x="500" y="131"/></Array></mxGeometry></mxCell><mxCell id="VBkov93yWaIdt4Ub14gF-6" style="edgeStyle=orthogonalEdgeStyle;orthogonalLoop=1;jettySize=auto;html=1;entryX=1;entryY=0.5;entryDx=0;entryDy=0;curved=1;fontColor=#2B2B2B;" parent="1" source="VBkov93yWaIdt4Ub14gF-31" target="VBkov93yWaIdt4Ub14gF-28" edge="1"><mxGeometry relative="1" as="geometry"/></mxCell><mxCell id="VBkov93yWaIdt4Ub14gF-7" style="edgeStyle=orthogonalEdgeStyle;curved=1;rounded=0;orthogonalLoop=1;jettySize=auto;html=1;entryX=1;entryY=0.5;entryDx=0;entryDy=0;fontColor=#2B2B2B;" parent="1" source="VBkov93yWaIdt4Ub14gF-31" target="VBkov93yWaIdt4Ub14gF-70" edge="1"><mxGeometry relative="1" as="geometry"><Array as="points"><mxPoint x="1060" y="105"/><mxPoint x="1060" y="685"/></Array></mxGeometry></mxCell><mxCell id="VBkov93yWaIdt4Ub14gF-8" style="edgeStyle=orthogonalEdgeStyle;curved=1;rounded=0;orthogonalLoop=1;jettySize=auto;html=1;entryX=1.014;entryY=0.808;entryDx=0;entryDy=0;entryPerimeter=0;fontColor=#2B2B2B;" parent="1" source="VBkov93yWaIdt4Ub14gF-31" target="VBkov93yWaIdt4Ub14gF-63" edge="1"><mxGeometry relative="1" as="geometry"><Array as="points"><mxPoint x="660" y="115"/><mxPoint x="660" y="243"/></Array></mxGeometry></mxCell><mxCell id="VBkov93yWaIdt4Ub14gF-9" value="product" style="swimlane;fontStyle=0;childLayout=stackLayout;horizontal=1;startSize=26;fillColor=#d80073;horizontalStack=0;resizeParent=1;resizeParentMax=0;resizeLast=0;collapsible=1;marginBottom=0;strokeColor=#A50040;fontColor=#ffffff;" parent="1" vertex="1"><mxGeometry x="152" y="60" width="148" height="208" as="geometry"><mxRectangle x="170" y="40" width="70" height="26" as="alternateBounds"/></mxGeometry></mxCell><mxCell id="VBkov93yWaIdt4Ub14gF-10" value="id (int)" style="text;strokeColor=#432D57;fillColor=#76608a;align=left;verticalAlign=top;spacingLeft=4;spacingRight=4;overflow=hidden;rotatable=0;points=[[0,0.5],[1,0.5]];portConstraint=eastwest;fontColor=#ffffff;" parent="VBkov93yWaIdt4Ub14gF-9" vertex="1"><mxGeometry y="26" width="148" height="26" as="geometry"/></mxCell><mxCell id="VBkov93yWaIdt4Ub14gF-11" value="shop_id (int)&#10; " style="text;strokeColor=#432D57;fillColor=#76608a;align=left;verticalAlign=top;spacingLeft=4;spacingRight=4;overflow=hidden;rotatable=0;points=[[0,0.5],[1,0.5]];portConstraint=eastwest;fontColor=#ffffff;" parent="VBkov93yWaIdt4Ub14gF-9" vertex="1"><mxGeometry y="52" width="148" height="26" as="geometry"/></mxCell><mxCell id="VBkov93yWaIdt4Ub14gF-12" value="category_id (int)" style="text;strokeColor=#432D57;fillColor=#76608a;align=left;verticalAlign=top;spacingLeft=4;spacingRight=4;overflow=hidden;rotatable=0;points=[[0,0.5],[1,0.5]];portConstraint=eastwest;fontColor=#ffffff;" parent="VBkov93yWaIdt4Ub14gF-9" vertex="1"><mxGeometry y="78" width="148" height="26" as="geometry"/></mxCell><mxCell id="VBkov93yWaIdt4Ub14gF-13" value="name (string)" style="text;strokeColor=#432D57;fillColor=#76608a;align=left;verticalAlign=top;spacingLeft=4;spacingRight=4;overflow=hidden;rotatable=0;points=[[0,0.5],[1,0.5]];portConstraint=eastwest;fontColor=#ffffff;" parent="VBkov93yWaIdt4Ub14gF-9" vertex="1"><mxGeometry y="104" width="148" height="26" as="geometry"/></mxCell><mxCell id="VBkov93yWaIdt4Ub14gF-14" value="description (text)" style="text;strokeColor=#432D57;fillColor=#76608a;align=left;verticalAlign=top;spacingLeft=4;spacingRight=4;overflow=hidden;rotatable=0;points=[[0,0.5],[1,0.5]];portConstraint=eastwest;fontColor=#ffffff;" parent="VBkov93yWaIdt4Ub14gF-9" vertex="1"><mxGeometry y="130" width="148" height="26" as="geometry"/></mxCell><mxCell id="VBkov93yWaIdt4Ub14gF-17" value="updated_at (datetime)" style="text;strokeColor=#432D57;fillColor=#76608a;align=left;verticalAlign=top;spacingLeft=4;spacingRight=4;overflow=hidden;rotatable=0;points=[[0,0.5],[1,0.5]];portConstraint=eastwest;fontColor=#ffffff;" parent="VBkov93yWaIdt4Ub14gF-9" vertex="1"><mxGeometry y="156" width="148" height="26" as="geometry"/></mxCell><mxCell id="VBkov93yWaIdt4Ub14gF-18" value="created_at (datetime)" style="text;strokeColor=#432D57;fillColor=#76608a;align=left;verticalAlign=top;spacingLeft=4;spacingRight=4;overflow=hidden;rotatable=0;points=[[0,0.5],[1,0.5]];portConstraint=eastwest;fontColor=#ffffff;" parent="VBkov93yWaIdt4Ub14gF-9" vertex="1"><mxGeometry y="182" width="148" height="26" as="geometry"/></mxCell><mxCell id="VBkov93yWaIdt4Ub14gF-19" value="shop" style="swimlane;fontStyle=0;childLayout=stackLayout;horizontal=1;startSize=26;horizontalStack=0;resizeParent=1;resizeParentMax=0;resizeLast=0;collapsible=1;marginBottom=0;strokeColor=#36393d;fillColor=#00CC00;fontColor=#2B2B2B;" parent="1" vertex="1"><mxGeometry x="330" y="96" width="140" height="182" as="geometry"><mxRectangle x="410" y="40" width="60" height="26" as="alternateBounds"/></mxGeometry></mxCell><mxCell id="VBkov93yWaIdt4Ub14gF-20" value="id (int)" style="text;strokeColor=#36393d;align=left;verticalAlign=top;spacingLeft=4;spacingRight=4;overflow=hidden;rotatable=0;points=[[0,0.5],[1,0.5]];portConstraint=eastwest;fillColor=#D6FFD1;fontColor=#2B2B2B;" parent="VBkov93yWaIdt4Ub14gF-19" vertex="1"><mxGeometry y="26" width="140" height="26" as="geometry"/></mxCell><mxCell id="VBkov93yWaIdt4Ub14gF-21" value="name (string)" style="text;strokeColor=#36393d;align=left;verticalAlign=top;spacingLeft=4;spacingRight=4;overflow=hidden;rotatable=0;points=[[0,0.5],[1,0.5]];portConstraint=eastwest;fillColor=#D6FFD1;fontColor=#2B2B2B;" parent="VBkov93yWaIdt4Ub14gF-19" vertex="1"><mxGeometry y="52" width="140" height="26" as="geometry"/></mxCell><mxCell id="VBkov93yWaIdt4Ub14gF-22" value="description (text)" style="text;strokeColor=#36393d;align=left;verticalAlign=top;spacingLeft=4;spacingRight=4;overflow=hidden;rotatable=0;points=[[0,0.5],[1,0.5]];portConstraint=eastwest;fillColor=#D6FFD1;fontColor=#2B2B2B;" parent="VBkov93yWaIdt4Ub14gF-19" vertex="1"><mxGeometry y="78" width="140" height="26" as="geometry"/></mxCell><mxCell id="VBkov93yWaIdt4Ub14gF-23" value="status (int)" style="text;strokeColor=#36393d;align=left;verticalAlign=top;spacingLeft=4;spacingRight=4;overflow=hidden;rotatable=0;points=[[0,0.5],[1,0.5]];portConstraint=eastwest;fillColor=#D6FFD1;fontColor=#2B2B2B;" parent="VBkov93yWaIdt4Ub14gF-19" vertex="1"><mxGeometry y="104" width="140" height="26" as="geometry"/></mxCell><mxCell id="VBkov93yWaIdt4Ub14gF-24" value="updated_at (datetime)" style="text;strokeColor=#36393d;align=left;verticalAlign=top;spacingLeft=4;spacingRight=4;overflow=hidden;rotatable=0;points=[[0,0.5],[1,0.5]];portConstraint=eastwest;fillColor=#D6FFD1;fontColor=#2B2B2B;" parent="VBkov93yWaIdt4Ub14gF-19" vertex="1"><mxGeometry y="130" width="140" height="26" as="geometry"/></mxCell><mxCell id="VBkov93yWaIdt4Ub14gF-25" value="created_at (datetime)" style="text;strokeColor=#36393d;align=left;verticalAlign=top;spacingLeft=4;spacingRight=4;overflow=hidden;rotatable=0;points=[[0,0.5],[1,0.5]];portConstraint=eastwest;fillColor=#D6FFD1;fontColor=#2B2B2B;" parent="VBkov93yWaIdt4Ub14gF-19" vertex="1"><mxGeometry y="156" width="140" height="26" as="geometry"/></mxCell><mxCell id="VBkov93yWaIdt4Ub14gF-30" value="user" style="swimlane;fontStyle=0;childLayout=stackLayout;horizontal=1;startSize=26;horizontalStack=0;resizeParent=1;resizeParentMax=0;resizeLast=0;collapsible=1;marginBottom=0;strokeColor=#36393d;fillColor=#00CC00;fontColor=#2B2B2B;" parent="1" vertex="1"><mxGeometry x="670" y="76" width="140" height="234" as="geometry"><mxRectangle x="830" y="40" width="60" height="26" as="alternateBounds"/></mxGeometry></mxCell><mxCell id="VBkov93yWaIdt4Ub14gF-31" value="id (int)" style="text;strokeColor=#36393d;align=left;verticalAlign=top;spacingLeft=4;spacingRight=4;overflow=hidden;rotatable=0;points=[[0,0.5],[1,0.5]];portConstraint=eastwest;fillColor=#D6FFD1;fontColor=#2B2B2B;" parent="VBkov93yWaIdt4Ub14gF-30" vertex="1"><mxGeometry y="26" width="140" height="26" as="geometry"/></mxCell><mxCell id="VBkov93yWaIdt4Ub14gF-32" value="name (string)" style="text;strokeColor=#36393d;align=left;verticalAlign=top;spacingLeft=4;spacingRight=4;overflow=hidden;rotatable=0;points=[[0,0.5],[1,0.5]];portConstraint=eastwest;fillColor=#D6FFD1;fontColor=#2B2B2B;" parent="VBkov93yWaIdt4Ub14gF-30" vertex="1"><mxGeometry y="52" width="140" height="26" as="geometry"/></mxCell><mxCell id="VBkov93yWaIdt4Ub14gF-33" value="email (string)" style="text;strokeColor=#36393d;align=left;verticalAlign=top;spacingLeft=4;spacingRight=4;overflow=hidden;rotatable=0;points=[[0,0.5],[1,0.5]];portConstraint=eastwest;fillColor=#D6FFD1;fontColor=#2B2B2B;" parent="VBkov93yWaIdt4Ub14gF-30" vertex="1"><mxGeometry y="78" width="140" height="26" as="geometry"/></mxCell><mxCell id="VBkov93yWaIdt4Ub14gF-34" value="phone (string)" style="text;strokeColor=#36393d;align=left;verticalAlign=top;spacingLeft=4;spacingRight=4;overflow=hidden;rotatable=0;points=[[0,0.5],[1,0.5]];portConstraint=eastwest;fillColor=#D6FFD1;fontColor=#2B2B2B;" parent="VBkov93yWaIdt4Ub14gF-30" vertex="1"><mxGeometry y="104" width="140" height="26" as="geometry"/></mxCell><mxCell id="VBkov93yWaIdt4Ub14gF-35" value="pass (string)" style="text;strokeColor=#36393d;align=left;verticalAlign=top;spacingLeft=4;spacingRight=4;overflow=hidden;rotatable=0;points=[[0,0.5],[1,0.5]];portConstraint=eastwest;fillColor=#D6FFD1;fontColor=#2B2B2B;" parent="VBkov93yWaIdt4Ub14gF-30" vertex="1"><mxGeometry y="130" width="140" height="26" as="geometry"/></mxCell><mxCell id="VBkov93yWaIdt4Ub14gF-36" value="status (int)" style="text;strokeColor=#36393d;align=left;verticalAlign=top;spacingLeft=4;spacingRight=4;overflow=hidden;rotatable=0;points=[[0,0.5],[1,0.5]];portConstraint=eastwest;fillColor=#D6FFD1;fontColor=#2B2B2B;" parent="VBkov93yWaIdt4Ub14gF-30" vertex="1"><mxGeometry y="156" width="140" height="26" as="geometry"/></mxCell><mxCell id="VBkov93yWaIdt4Ub14gF-37" value="updated_at (datetime)" style="text;strokeColor=#36393d;align=left;verticalAlign=top;spacingLeft=4;spacingRight=4;overflow=hidden;rotatable=0;points=[[0,0.5],[1,0.5]];portConstraint=eastwest;fillColor=#D6FFD1;fontColor=#2B2B2B;" parent="VBkov93yWaIdt4Ub14gF-30" vertex="1"><mxGeometry y="182" width="140" height="26" as="geometry"/></mxCell><mxCell id="VBkov93yWaIdt4Ub14gF-38" value="created_at (datetime)" style="text;strokeColor=#36393d;align=left;verticalAlign=top;spacingLeft=4;spacingRight=4;overflow=hidden;rotatable=0;points=[[0,0.5],[1,0.5]];portConstraint=eastwest;fillColor=#D6FFD1;fontColor=#2B2B2B;" parent="VBkov93yWaIdt4Ub14gF-30" vertex="1"><mxGeometry y="208" width="140" height="26" as="geometry"/></mxCell><mxCell id="VBkov93yWaIdt4Ub14gF-26" value="user_to_shop" style="swimlane;fontStyle=0;childLayout=stackLayout;horizontal=1;startSize=26;horizontalStack=0;resizeParent=1;resizeParentMax=0;resizeLast=0;collapsible=1;marginBottom=0;strokeColor=#36393d;fillColor=#00CC00;fontColor=#2B2B2B;" parent="1" vertex="1"><mxGeometry x="490" y="36" width="140" height="78" as="geometry"><mxRectangle x="630" y="40" width="120" height="26" as="alternateBounds"/></mxGeometry></mxCell><mxCell id="VBkov93yWaIdt4Ub14gF-28" value="user_id (int)" style="text;strokeColor=#36393d;align=left;verticalAlign=top;spacingLeft=4;spacingRight=4;overflow=hidden;rotatable=0;points=[[0,0.5],[1,0.5]];portConstraint=eastwest;fillColor=#D6FFD1;fontColor=#2B2B2B;" parent="VBkov93yWaIdt4Ub14gF-26" vertex="1"><mxGeometry y="26" width="140" height="26" as="geometry"/></mxCell><mxCell id="VBkov93yWaIdt4Ub14gF-29" value="shop_id (int)" style="text;strokeColor=#36393d;align=left;verticalAlign=top;spacingLeft=4;spacingRight=4;overflow=hidden;rotatable=0;points=[[0,0.5],[1,0.5]];portConstraint=eastwest;fillColor=#D6FFD1;fontColor=#2B2B2B;" parent="VBkov93yWaIdt4Ub14gF-26" vertex="1"><mxGeometry y="52" width="140" height="26" as="geometry"/></mxCell><mxCell id="VBkov93yWaIdt4Ub14gF-39" value="product_order" style="swimlane;fontStyle=0;childLayout=stackLayout;horizontal=1;startSize=26;fillColor=#eeeeee;horizontalStack=0;resizeParent=1;resizeParentMax=0;resizeLast=0;collapsible=1;marginBottom=0;strokeColor=#36393d;fontColor=#2B2B2B;" parent="1" vertex="1"><mxGeometry x="150" y="522" width="150" height="260" as="geometry"/></mxCell><mxCell id="VBkov93yWaIdt4Ub14gF-40" value="id (int)" style="text;strokeColor=#36393d;fillColor=#cce5ff;align=left;verticalAlign=top;spacingLeft=4;spacingRight=4;overflow=hidden;rotatable=0;points=[[0,0.5],[1,0.5]];portConstraint=eastwest;fontColor=#2B2B2B;" parent="VBkov93yWaIdt4Ub14gF-39" vertex="1"><mxGeometry y="26" width="150" height="26" as="geometry"/></mxCell><mxCell id="VBkov93yWaIdt4Ub14gF-41" value="product_id (int)&#10;&#10;&#10;" style="text;strokeColor=#36393d;fillColor=#cce5ff;align=left;verticalAlign=top;spacingLeft=4;spacingRight=4;overflow=hidden;rotatable=0;points=[[0,0.5],[1,0.5]];portConstraint=eastwest;fontColor=#2B2B2B;" parent="VBkov93yWaIdt4Ub14gF-39" vertex="1"><mxGeometry y="52" width="150" height="26" as="geometry"/></mxCell><mxCell id="VBkov93yWaIdt4Ub14gF-42" value="order_id (int)" style="text;strokeColor=#36393d;fillColor=#cce5ff;align=left;verticalAlign=top;spacingLeft=4;spacingRight=4;overflow=hidden;rotatable=0;points=[[0,0.5],[1,0.5]];portConstraint=eastwest;fontColor=#2B2B2B;" parent="VBkov93yWaIdt4Ub14gF-39" vertex="1"><mxGeometry y="78" width="150" height="26" as="geometry"/></mxCell><mxCell id="VBkov93yWaIdt4Ub14gF-43" value="price_for_one (decimal)" style="text;strokeColor=#36393d;fillColor=#cce5ff;align=left;verticalAlign=top;spacingLeft=4;spacingRight=4;overflow=hidden;rotatable=0;points=[[0,0.5],[1,0.5]];portConstraint=eastwest;fontColor=#2B2B2B;" parent="VBkov93yWaIdt4Ub14gF-39" vertex="1"><mxGeometry y="104" width="150" height="26" as="geometry"/></mxCell><mxCell id="VBkov93yWaIdt4Ub14gF-44" value="note (string)" style="text;strokeColor=#36393d;fillColor=#cce5ff;align=left;verticalAlign=top;spacingLeft=4;spacingRight=4;overflow=hidden;rotatable=0;points=[[0,0.5],[1,0.5]];portConstraint=eastwest;fontColor=#2B2B2B;" parent="VBkov93yWaIdt4Ub14gF-39" vertex="1"><mxGeometry y="130" width="150" height="26" as="geometry"/></mxCell><mxCell id="VBkov93yWaIdt4Ub14gF-45" value="status (int)" style="text;strokeColor=#36393d;fillColor=#cce5ff;align=left;verticalAlign=top;spacingLeft=4;spacingRight=4;overflow=hidden;rotatable=0;points=[[0,0.5],[1,0.5]];portConstraint=eastwest;fontColor=#2B2B2B;" parent="VBkov93yWaIdt4Ub14gF-39" vertex="1"><mxGeometry y="156" width="150" height="26" as="geometry"/></mxCell><mxCell id="VBkov93yWaIdt4Ub14gF-46" value="count (int)" style="text;strokeColor=#36393d;fillColor=#cce5ff;align=left;verticalAlign=top;spacingLeft=4;spacingRight=4;overflow=hidden;rotatable=0;points=[[0,0.5],[1,0.5]];portConstraint=eastwest;fontColor=#2B2B2B;" parent="VBkov93yWaIdt4Ub14gF-39" vertex="1"><mxGeometry y="182" width="150" height="26" as="geometry"/></mxCell><mxCell id="VBkov93yWaIdt4Ub14gF-47" value="updated_at (datetime)" style="text;strokeColor=#36393d;fillColor=#cce5ff;align=left;verticalAlign=top;spacingLeft=4;spacingRight=4;overflow=hidden;rotatable=0;points=[[0,0.5],[1,0.5]];portConstraint=eastwest;fontColor=#2B2B2B;" parent="VBkov93yWaIdt4Ub14gF-39" vertex="1"><mxGeometry y="208" width="150" height="26" as="geometry"/></mxCell><mxCell id="VBkov93yWaIdt4Ub14gF-48" value="created_at (datetime)" style="text;strokeColor=#36393d;fillColor=#cce5ff;align=left;verticalAlign=top;spacingLeft=4;spacingRight=4;overflow=hidden;rotatable=0;points=[[0,0.5],[1,0.5]];portConstraint=eastwest;fontColor=#2B2B2B;" parent="VBkov93yWaIdt4Ub14gF-39" vertex="1"><mxGeometry y="234" width="150" height="26" as="geometry"/></mxCell><mxCell id="VBkov93yWaIdt4Ub14gF-49" value="category" style="swimlane;fontStyle=0;childLayout=stackLayout;horizontal=1;startSize=26;fillColor=#d80073;horizontalStack=0;resizeParent=1;resizeParentMax=0;resizeLast=0;collapsible=1;marginBottom=0;strokeColor=#A50040;fontColor=#ffffff;" parent="1" vertex="1"><mxGeometry x="330" y="290" width="140" height="104" as="geometry"><mxRectangle x="410" y="290" width="80" height="26" as="alternateBounds"/></mxGeometry></mxCell><mxCell id="VBkov93yWaIdt4Ub14gF-50" value="id (int)" style="text;strokeColor=#432D57;fillColor=#76608a;align=left;verticalAlign=top;spacingLeft=4;spacingRight=4;overflow=hidden;rotatable=0;points=[[0,0.5],[1,0.5]];portConstraint=eastwest;fontColor=#ffffff;" parent="VBkov93yWaIdt4Ub14gF-49" vertex="1"><mxGeometry y="26" width="140" height="26" as="geometry"/></mxCell><mxCell id="VBkov93yWaIdt4Ub14gF-51" style="edgeStyle=orthogonalEdgeStyle;orthogonalLoop=1;jettySize=auto;html=1;curved=1;fontColor=#2B2B2B;" parent="VBkov93yWaIdt4Ub14gF-49" source="VBkov93yWaIdt4Ub14gF-52" target="VBkov93yWaIdt4Ub14gF-50" edge="1"><mxGeometry relative="1" as="geometry"><Array as="points"><mxPoint x="150" y="65"/><mxPoint x="150" y="39"/></Array></mxGeometry></mxCell><mxCell id="VBkov93yWaIdt4Ub14gF-52" value="parent_id (int)&#10;" style="text;strokeColor=#432D57;fillColor=#76608a;align=left;verticalAlign=top;spacingLeft=4;spacingRight=4;overflow=hidden;rotatable=0;points=[[0,0.5],[1,0.5]];portConstraint=eastwest;fontColor=#ffffff;" parent="VBkov93yWaIdt4Ub14gF-49" vertex="1"><mxGeometry y="52" width="140" height="26" as="geometry"/></mxCell><mxCell id="VBkov93yWaIdt4Ub14gF-53" value="name (string)" style="text;strokeColor=#432D57;fillColor=#76608a;align=left;verticalAlign=top;spacingLeft=4;spacingRight=4;overflow=hidden;rotatable=0;points=[[0,0.5],[1,0.5]];portConstraint=eastwest;fontColor=#ffffff;" parent="VBkov93yWaIdt4Ub14gF-49" vertex="1"><mxGeometry y="78" width="140" height="26" as="geometry"/></mxCell><mxCell id="VBkov93yWaIdt4Ub14gF-54" value="order_hystory" style="swimlane;fontStyle=0;childLayout=stackLayout;horizontal=1;startSize=26;fillColor=#eeeeee;horizontalStack=0;resizeParent=1;resizeParentMax=0;resizeLast=0;collapsible=1;marginBottom=0;strokeColor=#36393d;fontColor=#2B2B2B;" parent="1" vertex="1"><mxGeometry x="330" y="411" width="140" height="156" as="geometry"/></mxCell><mxCell id="VBkov93yWaIdt4Ub14gF-55" value="id (int)" style="text;strokeColor=#36393d;fillColor=#cce5ff;align=left;verticalAlign=top;spacingLeft=4;spacingRight=4;overflow=hidden;rotatable=0;points=[[0,0.5],[1,0.5]];portConstraint=eastwest;fontColor=#2B2B2B;" parent="VBkov93yWaIdt4Ub14gF-54" vertex="1"><mxGeometry y="26" width="140" height="26" as="geometry"/></mxCell><mxCell id="VBkov93yWaIdt4Ub14gF-56" value="order_id (int)" style="text;strokeColor=#36393d;fillColor=#cce5ff;align=left;verticalAlign=top;spacingLeft=4;spacingRight=4;overflow=hidden;rotatable=0;points=[[0,0.5],[1,0.5]];portConstraint=eastwest;fontColor=#2B2B2B;" parent="VBkov93yWaIdt4Ub14gF-54" vertex="1"><mxGeometry y="52" width="140" height="26" as="geometry"/></mxCell><mxCell id="VBkov93yWaIdt4Ub14gF-57" value="updated_at (datetime)" style="text;strokeColor=#36393d;fillColor=#cce5ff;align=left;verticalAlign=top;spacingLeft=4;spacingRight=4;overflow=hidden;rotatable=0;points=[[0,0.5],[1,0.5]];portConstraint=eastwest;fontColor=#2B2B2B;" parent="VBkov93yWaIdt4Ub14gF-54" vertex="1"><mxGeometry y="78" width="140" height="26" as="geometry"/></mxCell><mxCell id="VBkov93yWaIdt4Ub14gF-58" value="created_at (datetime)" style="text;strokeColor=#36393d;fillColor=#cce5ff;align=left;verticalAlign=top;spacingLeft=4;spacingRight=4;overflow=hidden;rotatable=0;points=[[0,0.5],[1,0.5]];portConstraint=eastwest;fontColor=#2B2B2B;" parent="VBkov93yWaIdt4Ub14gF-54" vertex="1"><mxGeometry y="104" width="140" height="26" as="geometry"/></mxCell><mxCell id="VBkov93yWaIdt4Ub14gF-59" value="status (int)" style="text;strokeColor=#36393d;fillColor=#cce5ff;align=left;verticalAlign=top;spacingLeft=4;spacingRight=4;overflow=hidden;rotatable=0;points=[[0,0.5],[1,0.5]];portConstraint=eastwest;fontColor=#2B2B2B;" parent="VBkov93yWaIdt4Ub14gF-54" vertex="1"><mxGeometry y="130" width="140" height="26" as="geometry"/></mxCell><mxCell id="VBkov93yWaIdt4Ub14gF-60" style="edgeStyle=orthogonalEdgeStyle;curved=1;rounded=0;orthogonalLoop=1;jettySize=auto;html=1;fontColor=#2B2B2B;" parent="1" source="VBkov93yWaIdt4Ub14gF-50" target="VBkov93yWaIdt4Ub14gF-12" edge="1"><mxGeometry relative="1" as="geometry"><Array as="points"><mxPoint x="320" y="329"/><mxPoint x="320" y="151"/></Array></mxGeometry></mxCell><mxCell id="VBkov93yWaIdt4Ub14gF-61" value="user_to_right" style="swimlane;fontStyle=0;childLayout=stackLayout;horizontal=1;startSize=26;fillColor=#eeeeee;horizontalStack=0;resizeParent=1;resizeParentMax=0;resizeLast=0;collapsible=1;marginBottom=0;strokeColor=#36393d;fontColor=#2B2B2B;" parent="1" vertex="1"><mxGeometry x="490" y="170" width="140" height="104" as="geometry"><mxRectangle x="630" y="180" width="110" height="26" as="alternateBounds"/></mxGeometry></mxCell><mxCell id="VBkov93yWaIdt4Ub14gF-62" value="id (int)" style="text;strokeColor=#36393d;align=left;verticalAlign=top;spacingLeft=4;spacingRight=4;overflow=hidden;rotatable=0;points=[[0,0.5],[1,0.5]];portConstraint=eastwest;fillColor=#333333;fontColor=#DBDBDB;" parent="VBkov93yWaIdt4Ub14gF-61" vertex="1"><mxGeometry y="26" width="140" height="26" as="geometry"/></mxCell><mxCell id="VBkov93yWaIdt4Ub14gF-63" value="user_id (int)" style="text;strokeColor=#36393d;align=left;verticalAlign=top;spacingLeft=4;spacingRight=4;overflow=hidden;rotatable=0;points=[[0,0.5],[1,0.5]];portConstraint=eastwest;fillColor=#333333;fontColor=#DBDBDB;" parent="VBkov93yWaIdt4Ub14gF-61" vertex="1"><mxGeometry y="52" width="140" height="26" as="geometry"/></mxCell><mxCell id="VBkov93yWaIdt4Ub14gF-64" value="right_id (int)" style="text;strokeColor=#36393d;align=left;verticalAlign=top;spacingLeft=4;spacingRight=4;overflow=hidden;rotatable=0;points=[[0,0.5],[1,0.5]];portConstraint=eastwest;fillColor=#333333;fontColor=#DBDBDB;" parent="VBkov93yWaIdt4Ub14gF-61" vertex="1"><mxGeometry y="78" width="140" height="26" as="geometry"/></mxCell><mxCell id="VBkov93yWaIdt4Ub14gF-65" value="right" style="swimlane;fontStyle=0;childLayout=stackLayout;horizontal=1;startSize=26;fillColor=#eeeeee;horizontalStack=0;resizeParent=1;resizeParentMax=0;resizeLast=0;collapsible=1;marginBottom=0;strokeColor=#36393d;fontColor=#2B2B2B;" parent="1" vertex="1"><mxGeometry x="490" y="278" width="140" height="78" as="geometry"><mxRectangle x="630" y="310" width="60" height="26" as="alternateBounds"/></mxGeometry></mxCell><mxCell id="VBkov93yWaIdt4Ub14gF-66" value="id (int)" style="text;strokeColor=#36393d;align=left;verticalAlign=top;spacingLeft=4;spacingRight=4;overflow=hidden;rotatable=0;points=[[0,0.5],[1,0.5]];portConstraint=eastwest;fillColor=#333333;fontColor=#DBDBDB;" parent="VBkov93yWaIdt4Ub14gF-65" vertex="1"><mxGeometry y="26" width="140" height="26" as="geometry"/></mxCell><mxCell id="VBkov93yWaIdt4Ub14gF-67" value="name (string)" style="text;strokeColor=#36393d;align=left;verticalAlign=top;spacingLeft=4;spacingRight=4;overflow=hidden;rotatable=0;points=[[0,0.5],[1,0.5]];portConstraint=eastwest;fillColor=#333333;fontColor=#DBDBDB;" parent="VBkov93yWaIdt4Ub14gF-65" vertex="1"><mxGeometry y="52" width="140" height="26" as="geometry"/></mxCell><mxCell id="X8WG8Pv5fmDvKheyrrQq-1" value="" style="endArrow=none;html=1;fontColor=#2B2B2B;" parent="VBkov93yWaIdt4Ub14gF-65" edge="1"><mxGeometry width="50" height="50" relative="1" as="geometry"><mxPoint x="-10" y="92" as="sourcePoint"/><mxPoint x="160" y="-128" as="targetPoint"/></mxGeometry></mxCell><mxCell id="VBkov93yWaIdt4Ub14gF-68" value="order" style="swimlane;fontStyle=0;childLayout=stackLayout;horizontal=1;startSize=26;fillColor=#eeeeee;horizontalStack=0;resizeParent=1;resizeParentMax=0;resizeLast=0;collapsible=1;marginBottom=0;strokeColor=#36393d;fontColor=#2B2B2B;" parent="1" vertex="1"><mxGeometry x="330" y="620" width="140" height="208" as="geometry"/></mxCell><mxCell id="VBkov93yWaIdt4Ub14gF-69" value="id (int)" style="text;strokeColor=#36393d;fillColor=#cce5ff;align=left;verticalAlign=top;spacingLeft=4;spacingRight=4;overflow=hidden;rotatable=0;points=[[0,0.5],[1,0.5]];portConstraint=eastwest;fontColor=#2B2B2B;" parent="VBkov93yWaIdt4Ub14gF-68" vertex="1"><mxGeometry y="26" width="140" height="26" as="geometry"/></mxCell><mxCell id="VBkov93yWaIdt4Ub14gF-70" value="user_id (int)" style="text;strokeColor=#36393d;fillColor=#cce5ff;align=left;verticalAlign=top;spacingLeft=4;spacingRight=4;overflow=hidden;rotatable=0;points=[[0,0.5],[1,0.5]];portConstraint=eastwest;fontColor=#2B2B2B;" parent="VBkov93yWaIdt4Ub14gF-68" vertex="1"><mxGeometry y="52" width="140" height="26" as="geometry"/></mxCell><mxCell id="VBkov93yWaIdt4Ub14gF-71" value="addres_id (int)" style="text;strokeColor=#36393d;fillColor=#cce5ff;align=left;verticalAlign=top;spacingLeft=4;spacingRight=4;overflow=hidden;rotatable=0;points=[[0,0.5],[1,0.5]];portConstraint=eastwest;fontColor=#2B2B2B;" parent="VBkov93yWaIdt4Ub14gF-68" vertex="1"><mxGeometry y="78" width="140" height="26" as="geometry"/></mxCell><mxCell id="VBkov93yWaIdt4Ub14gF-72" value="status (int)" style="text;strokeColor=#36393d;fillColor=#cce5ff;align=left;verticalAlign=top;spacingLeft=4;spacingRight=4;overflow=hidden;rotatable=0;points=[[0,0.5],[1,0.5]];portConstraint=eastwest;fontColor=#2B2B2B;" parent="VBkov93yWaIdt4Ub14gF-68" vertex="1"><mxGeometry y="104" width="140" height="26" as="geometry"/></mxCell><mxCell id="VBkov93yWaIdt4Ub14gF-73" value="total_price (decimal)" style="text;strokeColor=#36393d;fillColor=#cce5ff;align=left;verticalAlign=top;spacingLeft=4;spacingRight=4;overflow=hidden;rotatable=0;points=[[0,0.5],[1,0.5]];portConstraint=eastwest;fontColor=#2B2B2B;" parent="VBkov93yWaIdt4Ub14gF-68" vertex="1"><mxGeometry y="130" width="140" height="26" as="geometry"/></mxCell><mxCell id="VBkov93yWaIdt4Ub14gF-74" value="updated_at (datetime)" style="text;strokeColor=#36393d;fillColor=#cce5ff;align=left;verticalAlign=top;spacingLeft=4;spacingRight=4;overflow=hidden;rotatable=0;points=[[0,0.5],[1,0.5]];portConstraint=eastwest;fontColor=#2B2B2B;" parent="VBkov93yWaIdt4Ub14gF-68" vertex="1"><mxGeometry y="156" width="140" height="26" as="geometry"/></mxCell><mxCell id="VBkov93yWaIdt4Ub14gF-75" value="created_at (datetime)" style="text;strokeColor=#36393d;fillColor=#cce5ff;align=left;verticalAlign=top;spacingLeft=4;spacingRight=4;overflow=hidden;rotatable=0;points=[[0,0.5],[1,0.5]];portConstraint=eastwest;fontColor=#2B2B2B;" parent="VBkov93yWaIdt4Ub14gF-68" vertex="1"><mxGeometry y="182" width="140" height="26" as="geometry"/></mxCell><mxCell id="VBkov93yWaIdt4Ub14gF-76" style="edgeStyle=orthogonalEdgeStyle;curved=1;rounded=0;orthogonalLoop=1;jettySize=auto;html=1;entryX=0;entryY=0.5;entryDx=0;entryDy=0;fontColor=#2B2B2B;" parent="1" source="VBkov93yWaIdt4Ub14gF-31" target="VBkov93yWaIdt4Ub14gF-79" edge="1"><mxGeometry relative="1" as="geometry"/></mxCell><mxCell id="VBkov93yWaIdt4Ub14gF-77" value="user_to_addres" style="swimlane;fontStyle=0;childLayout=stackLayout;horizontal=1;startSize=26;horizontalStack=0;resizeParent=1;resizeParentMax=0;resizeLast=0;collapsible=1;marginBottom=0;strokeColor=#36393d;fillColor=#00CC00;fontColor=#2B2B2B;" parent="1" vertex="1"><mxGeometry x="850" y="206" width="140" height="78" as="geometry"><mxRectangle x="630" y="40" width="120" height="26" as="alternateBounds"/></mxGeometry></mxCell><mxCell id="VBkov93yWaIdt4Ub14gF-79" value="user_id (int)" style="text;align=left;verticalAlign=top;spacingLeft=4;spacingRight=4;overflow=hidden;rotatable=0;points=[[0,0.5],[1,0.5]];portConstraint=eastwest;strokeColor=#36393d;fillColor=#D6FFD1;fontColor=#2B2B2B;" parent="VBkov93yWaIdt4Ub14gF-77" vertex="1"><mxGeometry y="26" width="140" height="26" as="geometry"/></mxCell><mxCell id="VBkov93yWaIdt4Ub14gF-80" value="addres_id (int)" style="text;align=left;verticalAlign=top;spacingLeft=4;spacingRight=4;overflow=hidden;rotatable=0;points=[[0,0.5],[1,0.5]];portConstraint=eastwest;strokeColor=#36393d;fillColor=#D6FFD1;fontColor=#2B2B2B;" parent="VBkov93yWaIdt4Ub14gF-77" vertex="1"><mxGeometry y="52" width="140" height="26" as="geometry"/></mxCell><mxCell id="VBkov93yWaIdt4Ub14gF-81" value="address" style="swimlane;fontStyle=0;childLayout=stackLayout;horizontal=1;startSize=26;horizontalStack=0;resizeParent=1;resizeParentMax=0;resizeLast=0;collapsible=1;marginBottom=0;strokeColor=#36393d;fillColor=#00CC00;fontColor=#2B2B2B;" parent="1" vertex="1"><mxGeometry x="670" y="320" width="140" height="182" as="geometry"/></mxCell><mxCell id="VBkov93yWaIdt4Ub14gF-82" value="id (int)" style="text;strokeColor=#36393d;align=left;verticalAlign=top;spacingLeft=4;spacingRight=4;overflow=hidden;rotatable=0;points=[[0,0.5],[1,0.5]];portConstraint=eastwest;fillColor=#D6FFD1;fontColor=#2B2B2B;" parent="VBkov93yWaIdt4Ub14gF-81" vertex="1"><mxGeometry y="26" width="140" height="26" as="geometry"/></mxCell><mxCell id="VBkov93yWaIdt4Ub14gF-83" value="city (string)" style="text;strokeColor=#36393d;align=left;verticalAlign=top;spacingLeft=4;spacingRight=4;overflow=hidden;rotatable=0;points=[[0,0.5],[1,0.5]];portConstraint=eastwest;fillColor=#D6FFD1;fontColor=#2B2B2B;" parent="VBkov93yWaIdt4Ub14gF-81" vertex="1"><mxGeometry y="52" width="140" height="26" as="geometry"/></mxCell><mxCell id="VBkov93yWaIdt4Ub14gF-84" value="street (string)" style="text;strokeColor=#36393d;align=left;verticalAlign=top;spacingLeft=4;spacingRight=4;overflow=hidden;rotatable=0;points=[[0,0.5],[1,0.5]];portConstraint=eastwest;fillColor=#D6FFD1;fontColor=#2B2B2B;" parent="VBkov93yWaIdt4Ub14gF-81" vertex="1"><mxGeometry y="78" width="140" height="26" as="geometry"/></mxCell><mxCell id="VBkov93yWaIdt4Ub14gF-85" value="house (string)" style="text;strokeColor=#36393d;align=left;verticalAlign=top;spacingLeft=4;spacingRight=4;overflow=hidden;rotatable=0;points=[[0,0.5],[1,0.5]];portConstraint=eastwest;fillColor=#D6FFD1;fontColor=#2B2B2B;" parent="VBkov93yWaIdt4Ub14gF-81" vertex="1"><mxGeometry y="104" width="140" height="26" as="geometry"/></mxCell><mxCell id="VBkov93yWaIdt4Ub14gF-86" value="postal code (int)" style="text;strokeColor=#36393d;align=left;verticalAlign=top;spacingLeft=4;spacingRight=4;overflow=hidden;rotatable=0;points=[[0,0.5],[1,0.5]];portConstraint=eastwest;fillColor=#D6FFD1;fontColor=#2B2B2B;" parent="VBkov93yWaIdt4Ub14gF-81" vertex="1"><mxGeometry y="130" width="140" height="26" as="geometry"/></mxCell><mxCell id="VBkov93yWaIdt4Ub14gF-87" value="phone (string)" style="text;strokeColor=#36393d;align=left;verticalAlign=top;spacingLeft=4;spacingRight=4;overflow=hidden;rotatable=0;points=[[0,0.5],[1,0.5]];portConstraint=eastwest;fillColor=#D6FFD1;fontColor=#2B2B2B;" parent="VBkov93yWaIdt4Ub14gF-81" vertex="1"><mxGeometry y="156" width="140" height="26" as="geometry"/></mxCell><mxCell id="VBkov93yWaIdt4Ub14gF-88" style="edgeStyle=orthogonalEdgeStyle;curved=1;rounded=0;orthogonalLoop=1;jettySize=auto;html=1;fontColor=#2B2B2B;" parent="1" source="VBkov93yWaIdt4Ub14gF-82" target="VBkov93yWaIdt4Ub14gF-80" edge="1"><mxGeometry relative="1" as="geometry"/></mxCell><mxCell id="VBkov93yWaIdt4Ub14gF-89" style="edgeStyle=orthogonalEdgeStyle;curved=1;rounded=0;orthogonalLoop=1;jettySize=auto;html=1;fontColor=#2B2B2B;" parent="1" source="VBkov93yWaIdt4Ub14gF-82" target="VBkov93yWaIdt4Ub14gF-71" edge="1"><mxGeometry relative="1" as="geometry"><Array as="points"><mxPoint x="1050" y="359"/><mxPoint x="1050" y="711"/></Array></mxGeometry></mxCell><mxCell id="VBkov93yWaIdt4Ub14gF-90" value="payment" style="swimlane;fontStyle=0;childLayout=stackLayout;horizontal=1;startSize=26;fillColor=#eeeeee;horizontalStack=0;resizeParent=1;resizeParentMax=0;resizeLast=0;collapsible=1;marginBottom=0;strokeColor=#36393d;fontColor=#2B2B2B;" parent="1" vertex="1"><mxGeometry x="520" y="490" width="140" height="156" as="geometry"/></mxCell><mxCell id="VBkov93yWaIdt4Ub14gF-91" value="id (int)" style="text;strokeColor=#36393d;fillColor=#cce5ff;align=left;verticalAlign=top;spacingLeft=4;spacingRight=4;overflow=hidden;rotatable=0;points=[[0,0.5],[1,0.5]];portConstraint=eastwest;fontColor=#2B2B2B;" parent="VBkov93yWaIdt4Ub14gF-90" vertex="1"><mxGeometry y="26" width="140" height="26" as="geometry"/></mxCell><mxCell id="VBkov93yWaIdt4Ub14gF-92" value="order_id (int)" style="text;strokeColor=#36393d;fillColor=#cce5ff;align=left;verticalAlign=top;spacingLeft=4;spacingRight=4;overflow=hidden;rotatable=0;points=[[0,0.5],[1,0.5]];portConstraint=eastwest;fontColor=#2B2B2B;" parent="VBkov93yWaIdt4Ub14gF-90" vertex="1"><mxGeometry y="52" width="140" height="26" as="geometry"/></mxCell><mxCell id="VBkov93yWaIdt4Ub14gF-93" value="status (int)" style="text;strokeColor=#36393d;fillColor=#cce5ff;align=left;verticalAlign=top;spacingLeft=4;spacingRight=4;overflow=hidden;rotatable=0;points=[[0,0.5],[1,0.5]];portConstraint=eastwest;fontColor=#2B2B2B;" parent="VBkov93yWaIdt4Ub14gF-90" vertex="1"><mxGeometry y="78" width="140" height="26" as="geometry"/></mxCell><mxCell id="VBkov93yWaIdt4Ub14gF-94" value="updated_at (datetime)" style="text;strokeColor=#36393d;fillColor=#cce5ff;align=left;verticalAlign=top;spacingLeft=4;spacingRight=4;overflow=hidden;rotatable=0;points=[[0,0.5],[1,0.5]];portConstraint=eastwest;fontColor=#2B2B2B;" parent="VBkov93yWaIdt4Ub14gF-90" vertex="1"><mxGeometry y="104" width="140" height="26" as="geometry"/></mxCell><mxCell id="VBkov93yWaIdt4Ub14gF-95" value="created_at (datetime)" style="text;strokeColor=#36393d;fillColor=#cce5ff;align=left;verticalAlign=top;spacingLeft=4;spacingRight=4;overflow=hidden;rotatable=0;points=[[0,0.5],[1,0.5]];portConstraint=eastwest;fontColor=#2B2B2B;" parent="VBkov93yWaIdt4Ub14gF-90" vertex="1"><mxGeometry y="130" width="140" height="26" as="geometry"/></mxCell><mxCell id="VBkov93yWaIdt4Ub14gF-96" style="edgeStyle=orthogonalEdgeStyle;curved=1;rounded=0;orthogonalLoop=1;jettySize=auto;html=1;fontColor=#2B2B2B;" parent="1" source="VBkov93yWaIdt4Ub14gF-69" target="VBkov93yWaIdt4Ub14gF-92" edge="1"><mxGeometry relative="1" as="geometry"/></mxCell><mxCell id="VBkov93yWaIdt4Ub14gF-97" style="edgeStyle=orthogonalEdgeStyle;curved=1;rounded=0;orthogonalLoop=1;jettySize=auto;html=1;fontColor=#2B2B2B;" parent="1" source="VBkov93yWaIdt4Ub14gF-69" target="VBkov93yWaIdt4Ub14gF-56" edge="1"><mxGeometry relative="1" as="geometry"><Array as="points"><mxPoint x="490" y="659"/><mxPoint x="490" y="476"/></Array></mxGeometry></mxCell><mxCell id="VBkov93yWaIdt4Ub14gF-98" style="edgeStyle=orthogonalEdgeStyle;curved=1;rounded=0;orthogonalLoop=1;jettySize=auto;html=1;fontColor=#2B2B2B;" parent="1" source="VBkov93yWaIdt4Ub14gF-69" target="VBkov93yWaIdt4Ub14gF-42" edge="1"><mxGeometry relative="1" as="geometry"><Array as="points"><mxPoint x="320" y="659"/><mxPoint x="320" y="613"/></Array></mxGeometry></mxCell><mxCell id="VBkov93yWaIdt4Ub14gF-99" value="product_characteristic" style="swimlane;fontStyle=0;childLayout=stackLayout;horizontal=1;startSize=26;fillColor=#eeeeee;horizontalStack=0;resizeParent=1;resizeParentMax=0;resizeLast=0;collapsible=1;marginBottom=0;strokeColor=#36393d;fontColor=#2B2B2B;" parent="1" vertex="1"><mxGeometry x="151" y="380" width="150" height="130" as="geometry"><mxRectangle x="160" y="350" width="160" height="26" as="alternateBounds"/></mxGeometry></mxCell><mxCell id="VBkov93yWaIdt4Ub14gF-100" value="id (int)" style="text;strokeColor=#36393d;fillColor=#cce5ff;align=left;verticalAlign=top;spacingLeft=4;spacingRight=4;overflow=hidden;rotatable=0;points=[[0,0.5],[1,0.5]];portConstraint=eastwest;fontColor=#2B2B2B;" parent="VBkov93yWaIdt4Ub14gF-99" vertex="1"><mxGeometry y="26" width="150" height="26" as="geometry"/></mxCell><mxCell id="VBkov93yWaIdt4Ub14gF-101" value="product_id (int)" style="text;strokeColor=#36393d;fillColor=#cce5ff;align=left;verticalAlign=top;spacingLeft=4;spacingRight=4;overflow=hidden;rotatable=0;points=[[0,0.5],[1,0.5]];portConstraint=eastwest;fontColor=#2B2B2B;" parent="VBkov93yWaIdt4Ub14gF-99" vertex="1"><mxGeometry y="52" width="150" height="26" as="geometry"/></mxCell><mxCell id="VBkov93yWaIdt4Ub14gF-102" value="name (string)" style="text;strokeColor=#36393d;fillColor=#cce5ff;align=left;verticalAlign=top;spacingLeft=4;spacingRight=4;overflow=hidden;rotatable=0;points=[[0,0.5],[1,0.5]];portConstraint=eastwest;fontColor=#2B2B2B;" parent="VBkov93yWaIdt4Ub14gF-99" vertex="1"><mxGeometry y="78" width="150" height="26" as="geometry"/></mxCell><mxCell id="VBkov93yWaIdt4Ub14gF-103" value="value (string)" style="text;strokeColor=#36393d;fillColor=#cce5ff;align=left;verticalAlign=top;spacingLeft=4;spacingRight=4;overflow=hidden;rotatable=0;points=[[0,0.5],[1,0.5]];portConstraint=eastwest;fontColor=#2B2B2B;" parent="VBkov93yWaIdt4Ub14gF-99" vertex="1"><mxGeometry y="104" width="150" height="26" as="geometry"/></mxCell><mxCell id="VBkov93yWaIdt4Ub14gF-104" value="img" style="swimlane;fontStyle=0;childLayout=stackLayout;horizontal=1;startSize=26;fillColor=#a20025;horizontalStack=0;resizeParent=1;resizeParentMax=0;resizeLast=0;collapsible=1;marginBottom=0;strokeColor=#6F0000;fontColor=#ffffff;" parent="1" vertex="1"><mxGeometry x="-220" y="60" width="150" height="182" as="geometry"><mxRectangle x="160" y="350" width="160" height="26" as="alternateBounds"/></mxGeometry></mxCell><mxCell id="VBkov93yWaIdt4Ub14gF-105" value="id (int)" style="text;strokeColor=#2D7600;fillColor=#60a917;align=left;verticalAlign=top;spacingLeft=4;spacingRight=4;overflow=hidden;rotatable=0;points=[[0,0.5],[1,0.5]];portConstraint=eastwest;fontColor=#ffffff;" parent="VBkov93yWaIdt4Ub14gF-104" vertex="1"><mxGeometry y="26" width="150" height="26" as="geometry"/></mxCell><mxCell id="VBkov93yWaIdt4Ub14gF-106" value="url (string)" style="text;strokeColor=#2D7600;fillColor=#60a917;align=left;verticalAlign=top;spacingLeft=4;spacingRight=4;overflow=hidden;rotatable=0;points=[[0,0.5],[1,0.5]];portConstraint=eastwest;fontColor=#ffffff;" parent="VBkov93yWaIdt4Ub14gF-104" vertex="1"><mxGeometry y="52" width="150" height="26" as="geometry"/></mxCell><mxCell id="VBkov93yWaIdt4Ub14gF-107" value="path (string)" style="text;strokeColor=#2D7600;fillColor=#60a917;align=left;verticalAlign=top;spacingLeft=4;spacingRight=4;overflow=hidden;rotatable=0;points=[[0,0.5],[1,0.5]];portConstraint=eastwest;fontColor=#ffffff;" parent="VBkov93yWaIdt4Ub14gF-104" vertex="1"><mxGeometry y="78" width="150" height="26" as="geometry"/></mxCell><mxCell id="VBkov93yWaIdt4Ub14gF-108" value="mime (string)" style="text;strokeColor=#2D7600;fillColor=#60a917;align=left;verticalAlign=top;spacingLeft=4;spacingRight=4;overflow=hidden;rotatable=0;points=[[0,0.5],[1,0.5]];portConstraint=eastwest;fontColor=#ffffff;" parent="VBkov93yWaIdt4Ub14gF-104" vertex="1"><mxGeometry y="104" width="150" height="26" as="geometry"/></mxCell><mxCell id="VBkov93yWaIdt4Ub14gF-109" value="size (int)" style="text;strokeColor=#2D7600;fillColor=#60a917;align=left;verticalAlign=top;spacingLeft=4;spacingRight=4;overflow=hidden;rotatable=0;points=[[0,0.5],[1,0.5]];portConstraint=eastwest;fontColor=#ffffff;" parent="VBkov93yWaIdt4Ub14gF-104" vertex="1"><mxGeometry y="130" width="150" height="26" as="geometry"/></mxCell><mxCell id="VBkov93yWaIdt4Ub14gF-110" value="created_at (datetime)" style="text;strokeColor=#2D7600;fillColor=#60a917;align=left;verticalAlign=top;spacingLeft=4;spacingRight=4;overflow=hidden;rotatable=0;points=[[0,0.5],[1,0.5]];portConstraint=eastwest;fontColor=#ffffff;" parent="VBkov93yWaIdt4Ub14gF-104" vertex="1"><mxGeometry y="156" width="150" height="26" as="geometry"/></mxCell><mxCell id="VBkov93yWaIdt4Ub14gF-111" style="edgeStyle=orthogonalEdgeStyle;curved=1;rounded=0;orthogonalLoop=1;jettySize=auto;html=1;fontColor=#2B2B2B;" parent="1" source="VBkov93yWaIdt4Ub14gF-105" target="VBkov93yWaIdt4Ub14gF-115" edge="1"><mxGeometry relative="1" as="geometry"/></mxCell><mxCell id="VBkov93yWaIdt4Ub14gF-112" style="edgeStyle=orthogonalEdgeStyle;curved=1;rounded=0;orthogonalLoop=1;jettySize=auto;html=1;fontColor=#2B2B2B;" parent="1" source="VBkov93yWaIdt4Ub14gF-10" target="VBkov93yWaIdt4Ub14gF-116" edge="1"><mxGeometry relative="1" as="geometry"/></mxCell><mxCell id="VBkov93yWaIdt4Ub14gF-113" value="img_to_product" style="swimlane;fontStyle=0;childLayout=stackLayout;horizontal=1;startSize=26;fillColor=#a20025;horizontalStack=0;resizeParent=1;resizeParentMax=0;resizeLast=0;collapsible=1;marginBottom=0;strokeColor=#6F0000;fontColor=#ffffff;" parent="1" vertex="1"><mxGeometry x="-30" y="10" width="140" height="104" as="geometry"><mxRectangle x="630" y="40" width="120" height="26" as="alternateBounds"/></mxGeometry></mxCell><mxCell id="VBkov93yWaIdt4Ub14gF-114" value="id (int)" style="text;strokeColor=#2D7600;fillColor=#60a917;align=left;verticalAlign=top;spacingLeft=4;spacingRight=4;overflow=hidden;rotatable=0;points=[[0,0.5],[1,0.5]];portConstraint=eastwest;fontColor=#ffffff;" parent="VBkov93yWaIdt4Ub14gF-113" vertex="1"><mxGeometry y="26" width="140" height="26" as="geometry"/></mxCell><mxCell id="VBkov93yWaIdt4Ub14gF-115" value="img_id (int)" style="text;strokeColor=#2D7600;fillColor=#60a917;align=left;verticalAlign=top;spacingLeft=4;spacingRight=4;overflow=hidden;rotatable=0;points=[[0,0.5],[1,0.5]];portConstraint=eastwest;fontColor=#ffffff;" parent="VBkov93yWaIdt4Ub14gF-113" vertex="1"><mxGeometry y="52" width="140" height="26" as="geometry"/></mxCell><mxCell id="VBkov93yWaIdt4Ub14gF-116" value="product_id (int)" style="text;strokeColor=#2D7600;fillColor=#60a917;align=left;verticalAlign=top;spacingLeft=4;spacingRight=4;overflow=hidden;rotatable=0;points=[[0,0.5],[1,0.5]];portConstraint=eastwest;fontColor=#ffffff;" parent="VBkov93yWaIdt4Ub14gF-113" vertex="1"><mxGeometry y="78" width="140" height="26" as="geometry"/></mxCell><mxCell id="VBkov93yWaIdt4Ub14gF-117" style="edgeStyle=orthogonalEdgeStyle;curved=1;rounded=0;orthogonalLoop=1;jettySize=auto;html=1;entryX=0;entryY=0.25;entryDx=0;entryDy=0;fontColor=#2B2B2B;" parent="1" source="VBkov93yWaIdt4Ub14gF-118" target="VBkov93yWaIdt4Ub14gF-121" edge="1"><mxGeometry relative="1" as="geometry"/></mxCell><mxCell id="VBkov93yWaIdt4Ub14gF-118" value="Опции продукта, размер, цвет и тд" style="whiteSpace=wrap;html=1;rounded=1;arcSize=50;align=center;verticalAlign=middle;strokeWidth=1;autosize=1;spacing=4;treeFolding=1;treeMoving=1;newEdgeStyle={&quot;edgeStyle&quot;:&quot;entityRelationEdgeStyle&quot;,&quot;startArrow&quot;:&quot;none&quot;,&quot;endArrow&quot;:&quot;none&quot;,&quot;segment&quot;:10,&quot;curved&quot;:1};fontColor=#D1D1D1;" parent="1" vertex="1"><mxGeometry x="-430" y="500" width="136" height="82" as="geometry"/></mxCell><mxCell id="VBkov93yWaIdt4Ub14gF-119" style="edgeStyle=orthogonalEdgeStyle;curved=1;rounded=0;orthogonalLoop=1;jettySize=auto;html=1;entryX=1;entryY=0.5;entryDx=0;entryDy=0;fontColor=#2B2B2B;" parent="1" source="VBkov93yWaIdt4Ub14gF-10" target="VBkov93yWaIdt4Ub14gF-123" edge="1"><mxGeometry relative="1" as="geometry"><Array as="points"><mxPoint x="70" y="99"/><mxPoint x="70" y="575"/></Array></mxGeometry></mxCell><mxCell id="VBkov93yWaIdt4Ub14gF-120" style="edgeStyle=orthogonalEdgeStyle;curved=1;rounded=0;orthogonalLoop=1;jettySize=auto;html=1;entryX=0;entryY=0.5;entryDx=0;entryDy=0;fontColor=#2B2B2B;" parent="1" source="VBkov93yWaIdt4Ub14gF-105" target="VBkov93yWaIdt4Ub14gF-125" edge="1"><mxGeometry relative="1" as="geometry"><Array as="points"><mxPoint x="-270" y="99"/><mxPoint x="-270" y="627"/></Array></mxGeometry></mxCell><mxCell id="VBkov93yWaIdt4Ub14gF-121" value="product_option" style="swimlane;fontStyle=0;childLayout=stackLayout;horizontal=1;startSize=26;fillColor=#eeeeee;horizontalStack=0;resizeParent=1;resizeParentMax=0;resizeLast=0;collapsible=1;marginBottom=0;strokeColor=#36393d;fontColor=#2B2B2B;" parent="1" vertex="1"><mxGeometry x="-210" y="510" width="200" height="208" as="geometry"><mxRectangle x="170" y="40" width="70" height="26" as="alternateBounds"/></mxGeometry></mxCell><mxCell id="VBkov93yWaIdt4Ub14gF-122" value="id (int)" style="text;strokeColor=#36393d;fillColor=#cce5ff;align=left;verticalAlign=top;spacingLeft=4;spacingRight=4;overflow=hidden;rotatable=0;points=[[0,0.5],[1,0.5]];portConstraint=eastwest;fontColor=#2B2B2B;" parent="VBkov93yWaIdt4Ub14gF-121" vertex="1"><mxGeometry y="26" width="200" height="26" as="geometry"/></mxCell><mxCell id="VBkov93yWaIdt4Ub14gF-123" value="product_id (int)" style="text;strokeColor=#36393d;fillColor=#cce5ff;align=left;verticalAlign=top;spacingLeft=4;spacingRight=4;overflow=hidden;rotatable=0;points=[[0,0.5],[1,0.5]];portConstraint=eastwest;fontColor=#2B2B2B;" parent="VBkov93yWaIdt4Ub14gF-121" vertex="1"><mxGeometry y="52" width="200" height="26" as="geometry"/></mxCell><mxCell id="VBkov93yWaIdt4Ub14gF-124" value="product_price_id (int)" style="text;strokeColor=#36393d;fillColor=#cce5ff;align=left;verticalAlign=top;spacingLeft=4;spacingRight=4;overflow=hidden;rotatable=0;points=[[0,0.5],[1,0.5]];portConstraint=eastwest;fontColor=#2B2B2B;" parent="VBkov93yWaIdt4Ub14gF-121" vertex="1"><mxGeometry y="78" width="200" height="26" as="geometry"/></mxCell><mxCell id="VBkov93yWaIdt4Ub14gF-125" value="img_id (int)" style="text;strokeColor=#36393d;fillColor=#cce5ff;align=left;verticalAlign=top;spacingLeft=4;spacingRight=4;overflow=hidden;rotatable=0;points=[[0,0.5],[1,0.5]];portConstraint=eastwest;fontColor=#2B2B2B;" parent="VBkov93yWaIdt4Ub14gF-121" vertex="1"><mxGeometry y="104" width="200" height="26" as="geometry"/></mxCell><mxCell id="VBkov93yWaIdt4Ub14gF-132" value="value (string)" style="text;strokeColor=#36393d;fillColor=#cce5ff;align=left;verticalAlign=top;spacingLeft=4;spacingRight=4;overflow=hidden;rotatable=0;points=[[0,0.5],[1,0.5]];portConstraint=eastwest;fontColor=#2B2B2B;" parent="VBkov93yWaIdt4Ub14gF-121" vertex="1"><mxGeometry y="130" width="200" height="26" as="geometry"/></mxCell><mxCell id="X8WG8Pv5fmDvKheyrrQq-7" value="count (int)" style="text;strokeColor=#36393d;fillColor=#cce5ff;align=left;verticalAlign=top;spacingLeft=4;spacingRight=4;overflow=hidden;rotatable=0;points=[[0,0.5],[1,0.5]];portConstraint=eastwest;fontColor=#2B2B2B;" parent="VBkov93yWaIdt4Ub14gF-121" vertex="1"><mxGeometry y="156" width="200" height="26" as="geometry"/></mxCell><mxCell id="X8WG8Pv5fmDvKheyrrQq-8" value="description (text) - доп описание" style="text;strokeColor=#36393d;fillColor=#cce5ff;align=left;verticalAlign=top;spacingLeft=4;spacingRight=4;overflow=hidden;rotatable=0;points=[[0,0.5],[1,0.5]];portConstraint=eastwest;fontColor=#2B2B2B;" parent="VBkov93yWaIdt4Ub14gF-121" vertex="1"><mxGeometry y="182" width="200" height="26" as="geometry"/></mxCell><mxCell id="VBkov93yWaIdt4Ub14gF-126" value="product_price" style="swimlane;fontStyle=0;childLayout=stackLayout;horizontal=1;startSize=26;fillColor=#eeeeee;horizontalStack=0;resizeParent=1;resizeParentMax=0;resizeLast=0;collapsible=1;marginBottom=0;strokeColor=#36393d;fontColor=#2B2B2B;" parent="1" vertex="1"><mxGeometry x="-260" y="278" width="148" height="156" as="geometry"><mxRectangle x="170" y="40" width="70" height="26" as="alternateBounds"/></mxGeometry></mxCell><mxCell id="VBkov93yWaIdt4Ub14gF-127" value="id (int)" style="text;strokeColor=#36393d;fillColor=#cce5ff;align=left;verticalAlign=top;spacingLeft=4;spacingRight=4;overflow=hidden;rotatable=0;points=[[0,0.5],[1,0.5]];portConstraint=eastwest;fontColor=#2B2B2B;" parent="VBkov93yWaIdt4Ub14gF-126" vertex="1"><mxGeometry y="26" width="148" height="26" as="geometry"/></mxCell><mxCell id="VBkov93yWaIdt4Ub14gF-128" value="product_id (int)" style="text;strokeColor=#36393d;fillColor=#cce5ff;align=left;verticalAlign=top;spacingLeft=4;spacingRight=4;overflow=hidden;rotatable=0;points=[[0,0.5],[1,0.5]];portConstraint=eastwest;fontColor=#2B2B2B;" parent="VBkov93yWaIdt4Ub14gF-126" vertex="1"><mxGeometry y="52" width="148" height="26" as="geometry"/></mxCell><mxCell id="VBkov93yWaIdt4Ub14gF-129" value="product_option_id (int)" style="text;strokeColor=#36393d;fillColor=#cce5ff;align=left;verticalAlign=top;spacingLeft=4;spacingRight=4;overflow=hidden;rotatable=0;points=[[0,0.5],[1,0.5]];portConstraint=eastwest;fontColor=#2B2B2B;" parent="VBkov93yWaIdt4Ub14gF-126" vertex="1"><mxGeometry y="78" width="148" height="26" as="geometry"/></mxCell><mxCell id="VBkov93yWaIdt4Ub14gF-130" value="price (decimal)" style="text;strokeColor=#36393d;fillColor=#cce5ff;align=left;verticalAlign=top;spacingLeft=4;spacingRight=4;overflow=hidden;rotatable=0;points=[[0,0.5],[1,0.5]];portConstraint=eastwest;fontColor=#2B2B2B;" parent="VBkov93yWaIdt4Ub14gF-126" vertex="1"><mxGeometry y="104" width="148" height="26" as="geometry"/></mxCell><mxCell id="X8WG8Pv5fmDvKheyrrQq-4" value="discounted_price (decimal)" style="text;strokeColor=#36393d;fillColor=#cce5ff;align=left;verticalAlign=top;spacingLeft=4;spacingRight=4;overflow=hidden;rotatable=0;points=[[0,0.5],[1,0.5]];portConstraint=eastwest;fontColor=#2B2B2B;" parent="VBkov93yWaIdt4Ub14gF-126" vertex="1"><mxGeometry y="130" width="148" height="26" as="geometry"/></mxCell><mxCell id="VBkov93yWaIdt4Ub14gF-131" style="edgeStyle=orthogonalEdgeStyle;curved=1;rounded=0;orthogonalLoop=1;jettySize=auto;html=1;entryX=0;entryY=0.5;entryDx=0;entryDy=0;fontColor=#2B2B2B;" parent="1" source="VBkov93yWaIdt4Ub14gF-127" target="VBkov93yWaIdt4Ub14gF-124" edge="1"><mxGeometry relative="1" as="geometry"/></mxCell><mxCell id="X8WG8Pv5fmDvKheyrrQq-2" value="" style="endArrow=none;html=1;fontColor=#2B2B2B;" parent="1" edge="1"><mxGeometry width="50" height="50" relative="1" as="geometry"><mxPoint x="640" y="370" as="sourcePoint"/><mxPoint x="490" y="160" as="targetPoint"/></mxGeometry></mxCell><mxCell id="X8WG8Pv5fmDvKheyrrQq-6" value="&lt;div&gt;Сделаем в конце&lt;/div&gt;" style="text;html=1;align=center;verticalAlign=middle;whiteSpace=wrap;rounded=0;" parent="1" vertex="1"><mxGeometry x="515" y="360" width="90" height="20" as="geometry"/></mxCell></root></mxGraphModel></diagram></mxfile>